<svg xmlns="http://www.w3.org/2000/svg" xmlns:xlink="http://www.w3.org/1999/xlink" id="svg" version="1.1" width="100"
     height="100" viewBox="0, 0, 400,400"><g id="svgg"><path id="path0"
                                                           d="M333.200 42.235 C 322.573 44.125,315.751 55.697,320.007 64.615 C 326.940 79.142,348.563 77.581,352.642 62.260 C 355.533 51.402,344.656 40.198,333.200 42.235 M141.600 91.464 C 139.311 91.621,139.084 91.691,135.800 93.246 C 126.107 97.835,124.133 111.464,132.066 119.030 C 135.209 122.029,137.014 122.804,143.306 123.855 C 150.303 125.025,159.290 118.575,160.939 111.200 C 163.470 99.888,154.357 90.589,141.600 91.464 M349.218 165.610 C 333.469 168.933,331.413 190.031,346.200 196.586 C 358.372 201.983,372.171 192.634,370.599 180.056 C 370.112 176.157,368.786 173.516,365.835 170.566 C 361.439 166.173,355.272 164.333,349.218 165.610 M43.400 202.193 C 30.119 204.446,24.778 219.804,34.000 229.223 C 45.007 240.465,64.000 233.584,64.000 218.355 C 64.000 208.253,53.987 200.397,43.400 202.193 M265.505 259.883 C 266.002 259.979,266.722 259.975,267.105 259.875 C 267.487 259.775,267.080 259.696,266.200 259.701 C 265.320 259.705,265.007 259.787,265.505 259.883 M262.000 285.224 C 245.613 290.029,245.398 311.114,261.684 316.339 C 269.542 318.860,278.361 315.165,282.174 307.754 C 288.495 295.469,275.719 281.201,262.000 285.224 M59.520 325.814 C 47.023 329.233,42.900 343.553,51.784 352.683 C 60.401 361.538,74.908 358.912,79.862 347.600 C 81.038 344.916,81.200 344.133,81.200 341.138 C 81.200 330.927,69.934 322.964,59.520 325.814 " stroke="none" fill="#e6ced7" fill-rule="evenodd"/><path id="path1" d="M11.339 1.945 C 9.298 3.424,3.424 9.298,1.945 11.339 C 0.422 13.442,0.266 16.464,1.700 16.090 C 2.873 15.784,15.784 2.873,16.090 1.700 C 16.464 0.266,13.442 0.422,11.339 1.945 M26.760 2.059 C 24.469 3.696,3.696 24.469,2.059 26.760 C 0.857 28.441,0.213 32.000,1.111 32.000 C 1.926 32.000,4.368 29.713,17.056 17.067 C 29.106 5.058,32.000 1.953,32.000 1.038 C 32.000 0.200,28.372 0.906,26.760 2.059 M42.360 2.052 C 40.065 3.684,3.684 40.065,2.052 42.360 C 0.919 43.953,0.200 47.600,1.020 47.600 C 2.039 47.600,6.147 43.690,25.056 24.723 C 44.224 5.495,47.600 1.946,47.600 1.026 C 47.600 0.202,43.960 0.914,42.360 2.052 M57.960 2.049 C 55.663 3.679,3.679 55.663,2.049 57.960 C 0.918 59.553,0.202 63.200,1.020 63.200 C 2.059 63.200,7.103 58.340,32.858 32.526 C 58.947 6.378,63.200 1.962,63.200 1.026 C 63.200 0.203,59.560 0.914,57.960 2.049 M73.560 2.058 C 71.262 3.700,3.700 71.262,2.058 73.560 C 0.866 75.227,0.206 78.828,1.100 78.786 C 2.172 78.735,7.129 73.929,40.342 40.738 C 73.571 7.531,78.793 2.148,78.799 1.100 C 78.803 0.211,75.230 0.864,73.560 2.058 M89.160 2.071 C 86.861 3.732,3.732 86.861,2.071 89.160 C -0.953 93.347,0.752 95.677,4.337 92.257 C 6.605 90.093,90.093 6.605,92.257 4.337 C 95.677 0.752,93.347 -0.953,89.160 2.071 M104.831 2.024 C 102.624 3.623,3.623 102.624,2.024 104.831 C 0.420 107.044,0.212 110.230,1.700 109.784 C 3.565 109.225,109.225 3.565,109.784 1.700 C 110.230 0.212,107.044 0.420,104.831 2.024 M120.480 1.988 C 118.337 3.541,3.541 118.337,1.988 120.480 C 0.418 122.647,0.231 125.824,1.700 125.384 C 3.602 124.814,124.814 3.602,125.384 1.700 C 125.824 0.231,122.647 0.418,120.480 1.988 M136.130 1.951 C 134.053 3.456,3.456 134.053,1.951 136.130 C 0.416 138.251,0.251 141.418,1.700 140.984 C 3.638 140.403,140.403 3.638,140.984 1.700 C 141.418 0.251,138.251 0.416,136.130 1.951 M151.760 1.936 C 149.721 3.420,3.420 149.721,1.936 151.760 C 0.414 153.850,0.260 157.016,1.700 156.584 C 3.703 155.983,155.983 3.703,156.584 1.700 C 157.016 0.260,153.850 0.414,151.760 1.936 M167.800 1.588 C 166.240 2.605,3.457 165.310,1.948 167.360 C 0.420 169.436,0.249 172.629,1.691 172.171 C 3.277 171.668,6.729 168.259,88.032 86.893 C 172.108 2.754,171.732 3.135,172.176 1.700 C 172.552 0.482,169.612 0.406,167.800 1.588 M183.354 1.665 C 181.632 2.956,4.189 180.285,2.367 182.536 C 0.435 184.922,0.005 188.303,1.700 187.772 C 3.481 187.215,187.600 3.738,187.600 2.520 C 187.600 2.270,187.709 1.781,187.843 1.433 C 188.239 0.401,184.803 0.578,183.354 1.665 M199.186 1.500 C 198.649 1.885,183.495 16.870,165.511 34.800 C 147.527 52.730,132.450 67.458,132.007 67.528 C 131.563 67.598,131.200 67.823,131.200 68.028 C 131.200 68.233,130.660 68.400,130.000 68.400 C 129.340 68.400,128.800 68.580,128.800 68.800 C 128.800 69.020,128.350 69.200,127.800 69.200 C 127.250 69.200,126.800 69.346,126.800 69.525 C 126.800 69.704,126.170 70.098,125.400 70.400 C 124.630 70.702,124.000 71.096,124.000 71.275 C 124.000 71.454,123.640 71.600,123.200 71.600 C 122.760 71.600,122.400 71.780,122.400 72.000 C 122.400 72.220,122.128 72.400,121.796 72.400 C 121.464 72.400,120.628 72.940,119.937 73.600 C 119.246 74.260,118.520 74.800,118.324 74.800 C 117.423 74.800,110.250 82.032,109.604 83.591 C 109.328 84.256,108.945 84.800,108.751 84.800 C 108.558 84.800,108.400 85.120,108.400 85.512 C 108.400 85.903,108.040 86.483,107.600 86.800 C 107.160 87.117,106.800 87.697,106.800 88.088 C 106.800 88.480,106.620 88.800,106.400 88.800 C 106.180 88.800,106.000 89.160,106.000 89.600 C 106.000 90.040,105.820 90.400,105.600 90.400 C 105.380 90.400,105.200 90.951,105.200 91.624 C 105.200 92.337,105.033 92.744,104.800 92.600 C 104.573 92.460,104.400 92.796,104.400 93.376 C 104.400 93.939,104.231 94.400,104.025 94.400 C 103.819 94.400,103.594 94.944,103.525 95.608 C 103.421 96.616,94.991 105.241,52.800 147.511 C -2.624 203.039,0.800 199.459,0.800 201.881 C 0.800 205.523,-3.631 209.667,53.900 152.226 L 102.000 104.201 102.000 109.011 L 102.000 113.820 69.900 145.904 C 35.033 180.753,36.689 179.169,35.095 179.187 C 34.487 179.194,33.632 179.380,33.195 179.600 C 32.758 179.820,32.042 180.180,31.605 180.400 C 31.168 180.620,30.448 180.800,30.005 180.800 C 29.562 180.800,29.200 180.980,29.200 181.200 C 29.200 181.420,28.840 181.600,28.400 181.600 C 27.960 181.600,27.600 181.736,27.600 181.902 C 27.600 182.069,27.015 182.464,26.300 182.780 C 25.585 183.097,24.651 183.680,24.225 184.078 C 23.798 184.475,23.253 184.800,23.013 184.800 C 22.773 184.800,22.317 185.160,22.000 185.600 C 21.683 186.040,21.201 186.400,20.929 186.400 C 20.309 186.400,12.800 193.705,12.800 194.309 C 12.800 194.554,12.463 194.991,12.051 195.280 C 11.164 195.900,8.400 201.053,8.400 202.084 C 8.400 202.478,8.220 202.800,8.000 202.800 C 7.780 202.800,7.600 203.160,7.600 203.600 C 7.600 204.040,7.420 204.400,7.200 204.400 C 6.980 204.400,6.800 204.940,6.800 205.600 C 6.800 206.260,6.620 206.800,6.400 206.800 C 6.180 206.800,6.000 207.340,6.000 208.000 C 6.000 208.660,5.820 209.200,5.600 209.200 C 5.380 209.200,5.200 209.566,5.200 210.013 C 5.200 210.461,4.615 211.423,3.900 212.151 C 1.353 214.746,0.800 215.697,0.800 217.487 C 0.800 219.526,1.360 219.687,3.169 218.164 L 4.400 217.129 4.400 222.183 C 4.400 226.881,4.337 227.302,3.500 228.168 C 1.515 230.223,1.059 231.043,0.882 232.882 C 0.646 235.346,1.342 235.423,3.754 233.200 C 5.729 231.379,6.000 231.282,6.000 232.400 C 6.000 232.840,6.180 233.200,6.400 233.200 C 6.620 233.200,6.800 233.740,6.800 234.400 C 6.800 235.060,6.980 235.600,7.200 235.600 C 7.420 235.600,7.600 235.960,7.600 236.400 C 7.600 236.840,7.780 237.200,8.000 237.200 C 9.217 237.200,4.056 244.169,1.436 246.063 C 1.236 246.208,0.988 247.335,0.886 248.569 C 0.619 251.787,1.337 251.409,8.270 244.680 C 10.691 242.330,12.000 242.065,12.000 243.923 C 12.000 244.132,12.687 245.000,13.527 245.852 L 15.053 247.400 9.092 253.551 C 1.688 261.191,0.800 262.377,0.800 264.623 C 0.800 267.289,1.685 266.693,10.344 258.195 C 16.939 251.721,18.256 250.599,18.714 251.057 C 19.013 251.355,19.416 251.600,19.610 251.600 C 19.805 251.600,20.414 252.050,20.964 252.600 C 21.514 253.150,22.227 253.600,22.548 253.600 C 24.166 253.600,22.692 255.409,13.419 264.800 C 1.777 276.590,0.800 277.788,0.800 280.260 C 0.800 283.242,0.793 283.248,15.326 268.831 C 21.885 262.324,27.323 256.933,27.409 256.851 C 27.495 256.768,28.745 257.173,30.187 257.751 C 31.629 258.328,33.291 258.800,33.880 258.800 C 34.795 258.800,32.639 261.125,19.139 274.700 C 1.641 292.296,0.800 293.266,0.800 295.860 C 0.800 296.817,0.899 297.600,1.020 297.600 C 2.020 297.600,5.693 294.144,21.400 278.422 L 39.400 260.404 44.183 260.402 L 48.965 260.400 26.140 283.300 C 1.434 308.087,0.800 308.792,0.800 311.460 C 0.800 312.417,0.899 313.200,1.020 313.200 C 2.052 313.200,6.705 308.744,29.599 285.826 C 51.304 264.099,55.983 259.600,56.875 259.600 C 57.468 259.600,58.056 259.433,58.183 259.228 C 58.309 259.023,59.400 258.733,60.606 258.582 C 61.813 258.431,62.800 258.149,62.800 257.954 C 62.800 257.759,63.072 257.600,63.404 257.600 C 64.165 257.600,67.439 256.109,68.923 255.086 C 69.541 254.661,70.121 254.388,70.214 254.480 C 70.306 254.572,55.293 269.757,36.853 288.224 C 1.044 324.084,0.800 324.346,0.800 327.060 C 0.800 330.395,-2.029 333.082,64.488 266.570 C 98.099 232.960,125.600 205.697,125.600 205.984 C 125.600 206.271,125.271 206.797,124.870 207.153 C 124.468 207.509,123.884 208.385,123.572 209.100 C 123.260 209.815,122.869 210.400,122.702 210.400 C 122.536 210.400,122.400 210.760,122.400 211.200 C 122.400 211.640,122.220 212.000,122.000 212.000 C 121.780 212.000,121.600 212.360,121.600 212.800 C 121.600 213.240,121.420 213.600,121.200 213.600 C 120.980 213.600,120.800 213.960,120.800 214.400 C 120.800 214.840,120.620 215.200,120.400 215.200 C 120.180 215.200,120.000 215.740,120.000 216.400 C 120.000 217.060,119.820 217.600,119.600 217.600 C 119.380 217.600,119.200 218.219,119.200 218.976 C 119.200 219.733,119.020 220.464,118.800 220.600 C 118.580 220.736,118.400 221.177,118.400 221.579 C 118.400 222.018,95.377 245.341,60.872 279.855 C -0.013 340.758,0.800 339.908,0.800 342.687 C 0.800 345.932,0.418 346.237,16.657 330.053 C 22.477 324.252,27.329 319.596,27.439 319.705 C 27.548 319.815,27.366 320.177,27.033 320.510 C 26.701 320.842,26.377 321.354,26.314 321.648 C 26.251 321.941,25.966 322.432,25.680 322.739 C 25.395 323.045,25.057 323.815,24.930 324.448 C 24.804 325.082,24.543 325.600,24.350 325.600 C 24.158 325.600,24.000 326.050,24.000 326.600 C 24.000 327.150,23.820 327.600,23.600 327.600 C 23.380 327.600,23.200 328.140,23.200 328.800 C 23.200 329.460,23.020 330.000,22.800 330.000 C 22.580 330.000,22.400 330.619,22.400 331.376 C 22.400 332.133,22.220 332.864,22.000 333.000 C 21.780 333.136,21.600 333.575,21.600 333.975 C 21.600 334.388,17.599 338.741,12.338 344.051 C 1.473 355.019,0.800 355.850,0.800 358.287 C 0.800 361.438,1.106 361.210,13.457 348.855 L 20.800 341.510 20.800 344.131 C 20.800 345.573,20.980 346.864,21.200 347.000 C 21.420 347.136,21.600 347.961,21.600 348.832 C 21.600 350.366,21.301 350.717,12.341 359.693 C 1.546 370.509,0.800 371.426,0.800 373.887 C 0.800 377.071,0.889 377.003,14.559 363.400 C 22.362 355.635,23.010 355.083,23.127 356.100 C 23.196 356.705,23.421 357.200,23.627 357.200 C 23.832 357.200,24.000 357.560,24.000 358.000 C 24.000 358.440,24.143 358.800,24.317 358.800 C 24.492 358.800,24.834 359.548,25.079 360.463 L 25.522 362.126 14.304 373.346 C 1.468 386.183,0.800 386.981,0.800 389.487 C 0.800 392.749,0.657 392.862,16.871 376.700 C 28.417 365.191,28.074 365.468,28.777 367.100 C 29.037 367.705,29.932 368.829,30.766 369.599 L 32.282 370.997 20.441 382.856 C 2.821 400.504,3.230 400.000,6.513 400.000 C 9.035 400.000,9.896 399.279,23.423 385.834 C 33.212 376.105,35.384 374.129,35.861 374.523 C 36.179 374.785,36.872 375.405,37.401 375.900 C 37.930 376.395,38.565 376.800,38.810 376.800 C 39.339 376.800,40.400 377.794,40.400 378.290 C 40.400 378.481,36.233 382.764,31.140 387.807 C 19.838 399.000,19.099 400.000,22.140 400.000 C 24.559 400.000,25.719 399.073,35.855 389.042 C 44.256 380.728,46.400 379.142,46.400 381.247 C 46.400 381.441,46.760 381.600,47.200 381.600 C 47.640 381.600,48.000 381.780,48.000 382.000 C 48.000 382.220,48.463 382.400,49.029 382.400 C 51.927 382.400,51.458 383.173,44.154 390.443 C 38.095 396.473,36.000 398.873,36.000 399.780 C 36.000 399.901,36.783 400.000,37.740 400.000 C 40.083 400.000,41.268 399.090,49.794 390.749 C 53.647 386.979,56.800 384.093,56.800 384.334 C 56.800 384.618,58.287 384.813,61.000 384.886 L 65.200 385.000 58.980 391.200 C 53.593 396.570,51.600 398.887,51.600 399.780 C 51.600 399.901,52.472 400.000,53.538 400.000 C 55.706 400.000,59.199 397.150,68.192 388.043 C 71.849 384.340,72.312 384.000,73.692 384.000 C 74.522 384.000,75.200 383.820,75.200 383.600 C 75.200 383.380,75.920 383.200,76.800 383.200 C 77.680 383.200,78.400 383.020,78.400 382.800 C 78.400 382.580,78.749 382.400,79.176 382.400 C 79.603 382.400,80.064 382.220,80.200 382.000 C 80.336 381.780,80.887 381.600,81.424 381.600 C 81.961 381.600,82.400 381.420,82.400 381.200 C 82.400 380.980,82.760 380.800,83.200 380.800 C 83.640 380.800,84.000 380.620,84.000 380.400 C 84.000 380.180,84.345 380.000,84.767 380.000 C 85.188 380.000,85.614 379.775,85.712 379.500 C 85.810 379.225,85.995 379.095,86.123 379.211 C 86.251 379.327,82.331 383.467,77.413 388.411 C 69.497 396.368,67.200 398.921,67.200 399.762 C 67.200 400.635,71.017 399.899,72.542 398.732 C 73.454 398.034,101.203 370.494,134.207 337.532 C 167.211 304.569,194.400 277.600,194.627 277.600 C 195.280 277.600,197.193 278.568,197.197 278.900 C 197.199 279.065,197.560 279.200,198.000 279.200 C 198.440 279.200,198.800 279.380,198.800 279.600 C 198.800 279.820,199.173 280.000,199.629 280.000 C 200.156 280.000,200.411 280.218,200.329 280.597 C 200.258 280.925,173.899 307.520,141.753 339.697 C 109.607 371.874,83.209 398.605,83.091 399.100 C 82.726 400.619,85.986 400.382,88.142 398.731 C 89.054 398.034,115.765 371.532,147.500 339.839 C 179.235 308.145,205.200 282.436,205.200 282.707 C 205.200 282.978,205.560 283.200,206.000 283.200 C 206.440 283.200,206.800 283.380,206.800 283.600 C 206.800 283.820,207.145 284.000,207.567 284.000 C 207.988 284.000,208.393 284.141,208.467 284.312 C 208.540 284.484,209.173 284.898,209.874 285.231 L 211.149 285.838 155.418 341.619 C 124.766 372.298,99.393 397.985,99.033 398.700 L 98.379 400.000 100.232 400.000 C 102.960 400.000,100.659 402.197,160.208 342.731 C 210.332 292.677,216.000 287.157,216.000 288.400 C 216.000 288.620,216.235 288.800,216.521 288.800 C 217.195 288.800,221.200 290.792,221.200 291.127 C 221.200 291.267,197.370 315.236,168.245 344.391 C 139.120 373.546,114.995 397.985,114.635 398.700 L 113.979 400.000 115.903 400.000 C 118.587 400.000,114.692 403.715,172.720 345.809 C 201.606 316.984,225.305 293.341,225.385 293.268 C 225.465 293.196,225.370 293.826,225.175 294.668 C 224.979 295.511,224.815 297.815,224.810 299.790 L 224.800 303.379 177.846 350.390 C 152.021 376.245,130.596 397.985,130.236 398.700 L 129.579 400.000 131.503 400.000 C 134.178 400.000,130.980 403.027,180.192 353.923 C 227.270 306.949,225.201 308.857,225.440 312.200 C 225.542 313.632,226.230 316.364,226.576 316.709 C 226.711 316.844,208.753 335.055,186.669 357.177 C 164.585 379.300,146.234 397.985,145.889 398.700 L 145.261 400.000 147.177 400.000 C 149.835 400.000,147.145 402.529,189.853 359.888 C 212.684 337.093,228.488 321.607,228.753 321.771 C 228.999 321.923,229.200 322.307,229.200 322.624 C 229.200 322.941,229.336 323.200,229.502 323.200 C 229.669 323.200,230.031 323.711,230.307 324.335 C 230.583 324.959,231.149 325.814,231.563 326.235 C 232.303 326.986,231.684 327.634,197.217 362.200 C 177.913 381.560,161.835 397.985,161.490 398.700 L 160.861 400.000 162.795 400.000 C 165.548 400.000,164.593 400.889,201.599 363.839 C 219.749 345.668,234.738 330.800,234.908 330.800 C 235.307 330.800,239.720 335.205,239.538 335.421 C 239.462 335.511,226.246 348.773,210.169 364.892 C 173.166 401.992,174.963 400.000,178.495 400.000 C 181.056 400.000,180.246 400.751,213.121 367.917 C 242.084 338.989,243.275 337.855,244.121 338.396 C 244.604 338.706,245.945 339.477,247.100 340.110 C 248.255 340.742,249.200 341.317,249.200 341.386 C 249.200 341.455,237.275 353.467,222.700 368.079 C 188.471 402.395,190.617 400.000,194.113 400.000 C 196.749 400.000,196.562 400.172,226.700 370.015 C 241.935 354.771,254.400 342.501,254.400 342.749 C 254.400 342.997,254.940 343.200,255.600 343.200 C 256.260 343.200,256.800 343.380,256.800 343.600 C 256.800 343.820,257.775 344.000,258.967 344.000 C 260.274 344.000,261.196 344.187,261.290 344.471 C 261.377 344.731,250.277 356.131,236.624 369.804 C 204.247 402.231,206.235 400.000,209.713 400.000 C 212.364 400.000,212.390 399.977,241.115 371.237 L 267.538 344.800 270.546 344.800 C 272.200 344.800,273.664 344.620,273.800 344.400 C 273.936 344.180,274.942 344.000,276.035 344.000 L 278.022 344.000 252.711 369.341 C 219.699 402.393,221.837 400.000,225.313 400.000 C 227.974 400.000,227.927 400.043,258.670 369.327 C 283.958 344.061,290.389 338.000,291.906 338.000 C 292.080 338.000,292.483 337.640,292.800 337.200 C 293.117 336.760,293.601 336.400,293.874 336.400 C 294.488 336.400,302.800 328.142,302.800 327.533 C 302.800 327.291,303.120 326.803,303.511 326.447 C 303.902 326.091,304.667 324.914,305.211 323.832 C 305.972 322.317,316.723 311.330,351.928 276.090 C 400.864 227.104,400.000 228.017,400.000 225.313 C 400.000 221.748,405.063 217.031,352.143 269.907 C 317.664 304.358,309.600 312.224,309.600 311.407 C 309.600 310.853,309.780 310.400,310.000 310.400 C 310.241 310.400,310.400 308.725,310.400 306.174 L 310.400 301.948 354.043 258.312 C 400.818 211.543,400.000 212.408,400.000 209.713 C 400.000 206.142,404.867 201.612,352.605 253.821 C 308.435 297.945,309.600 296.871,309.600 293.450 C 309.600 292.689,309.447 292.007,309.261 291.933 C 309.074 291.860,308.799 291.016,308.650 290.059 L 308.377 288.317 342.528 254.259 C 376.339 220.538,378.527 218.416,379.500 218.405 C 379.775 218.402,380.000 218.250,380.000 218.068 C 380.000 217.885,380.495 217.480,381.100 217.168 C 381.705 216.855,382.677 216.105,383.260 215.500 C 383.844 214.895,384.484 214.400,384.682 214.400 C 385.207 214.400,387.683 212.017,388.767 210.469 C 389.280 209.736,390.127 208.709,390.650 208.187 C 391.172 207.664,391.600 207.041,391.600 206.801 C 391.600 206.562,391.960 205.980,392.400 205.508 C 392.840 205.036,393.200 204.413,393.200 204.125 C 393.200 203.836,393.380 203.600,393.600 203.600 C 393.820 203.600,394.000 203.403,394.000 203.162 C 394.000 202.921,395.025 201.657,396.279 200.352 C 400.144 196.328,401.683 191.962,399.000 192.636 C 398.094 192.863,398.000 192.770,398.000 191.643 C 398.000 190.960,398.180 190.400,398.400 190.400 C 398.641 190.400,398.805 188.692,398.813 186.100 C 398.822 182.954,398.983 181.592,399.413 181.024 C 400.493 179.595,400.197 176.735,399.000 177.036 C 398.074 177.268,398.000 177.182,398.000 175.867 C 398.000 175.086,397.820 174.336,397.600 174.200 C 397.380 174.064,397.200 173.423,397.200 172.776 C 397.200 172.129,397.020 171.600,396.800 171.600 C 395.721 171.600,396.482 169.089,398.200 166.979 C 399.795 165.020,400.000 164.543,400.000 162.781 C 400.000 160.444,399.695 160.502,396.268 163.493 C 394.278 165.230,393.200 165.208,393.200 163.429 C 393.200 163.083,393.020 162.800,392.800 162.800 C 392.580 162.800,392.400 162.410,392.400 161.933 C 392.400 161.457,392.277 161.190,392.127 161.340 C 391.976 161.490,391.610 161.035,391.313 160.328 L 390.772 159.042 394.524 155.221 C 399.638 150.011,400.000 149.480,400.000 147.177 L 400.000 145.261 398.872 145.824 C 398.252 146.134,395.565 148.463,392.902 151.001 L 388.060 155.614 385.683 153.282 L 383.306 150.949 390.753 143.361 C 400.001 133.938,400.000 133.939,400.000 131.503 L 400.000 129.579 398.777 130.212 C 398.105 130.560,393.630 134.704,388.833 139.422 C 379.586 148.516,379.690 148.435,378.800 147.200 C 378.483 146.760,377.986 146.400,377.695 146.400 C 377.404 146.400,376.780 146.040,376.308 145.600 C 375.836 145.160,375.198 144.800,374.891 144.800 C 373.897 144.800,374.440 144.202,386.400 132.118 C 400.316 118.058,400.000 118.435,400.000 115.903 L 400.000 113.979 398.708 114.647 C 397.998 115.015,391.270 121.418,383.757 128.878 C 369.529 143.004,368.951 143.462,367.773 141.556 C 367.652 141.360,366.843 141.200,365.976 141.200 C 365.109 141.200,364.400 141.020,364.400 140.800 C 364.400 140.580,364.003 140.400,363.519 140.400 C 362.862 140.400,367.020 135.993,379.843 123.100 C 399.919 102.913,400.000 102.822,400.000 100.249 L 400.000 98.379 398.700 99.042 C 397.985 99.407,388.400 108.679,377.400 119.647 L 357.400 139.588 352.613 139.594 L 347.827 139.600 372.442 114.900 C 400.285 86.962,400.000 87.274,400.000 84.696 C 400.000 83.009,399.934 82.891,399.100 83.096 C 398.605 83.218,385.193 96.296,369.295 112.159 C 343.010 138.386,340.191 141.079,338.195 141.867 C 336.988 142.344,336.000 142.638,336.000 142.521 C 336.000 142.404,335.550 142.603,335.000 142.963 C 334.450 143.324,334.000 143.527,334.000 143.416 C 334.000 143.305,333.395 143.554,332.655 143.969 C 331.915 144.385,330.880 144.967,330.355 145.262 C 329.830 145.558,329.310 145.899,329.200 146.019 C 329.090 146.140,328.370 146.677,327.600 147.214 C 325.416 148.735,324.864 149.214,321.939 152.131 C 320.432 153.632,319.200 155.036,319.200 155.249 C 319.200 155.462,318.764 156.072,318.231 156.605 C 317.698 157.138,317.146 157.940,317.004 158.387 C 316.862 158.834,316.578 159.200,316.373 159.200 C 316.168 159.200,316.000 159.455,316.000 159.767 C 316.000 160.078,315.865 160.393,315.700 160.467 C 315.268 160.659,313.600 163.972,313.600 164.638 C 313.600 164.947,313.420 165.200,313.200 165.200 C 312.980 165.200,312.800 165.549,312.800 165.976 C 312.800 166.403,312.620 166.864,312.400 167.000 C 312.180 167.136,312.000 167.717,312.000 168.291 C 312.000 169.490,291.942 190.027,291.644 189.133 C 291.554 188.862,291.687 188.571,291.940 188.487 C 292.211 188.396,292.400 187.444,292.400 186.167 C 292.400 184.975,292.580 184.000,292.800 184.000 C 293.027 184.000,293.200 182.836,293.200 181.308 L 293.200 178.616 345.331 126.408 C 374.003 97.694,398.033 73.454,398.731 72.542 C 399.899 71.017,400.635 67.200,399.762 67.200 C 398.783 67.200,391.430 74.401,344.972 120.855 L 292.600 173.223 292.490 171.512 C 292.430 170.570,292.219 169.440,292.022 169.000 C 291.824 168.560,291.562 167.474,291.440 166.586 L 291.218 164.972 327.518 128.686 C 347.484 108.729,364.047 92.400,364.326 92.400 C 365.169 92.400,372.167 85.757,373.481 83.710 C 373.873 83.100,374.375 82.348,374.597 82.040 C 374.819 81.733,379.956 76.423,386.013 70.240 C 399.651 56.321,400.000 55.902,400.000 53.459 C 400.000 52.436,399.901 51.600,399.780 51.600 C 398.843 51.600,396.263 53.898,388.800 61.382 C 382.671 67.527,380.158 69.808,380.054 69.318 C 379.974 68.940,380.109 68.564,380.354 68.482 C 380.601 68.400,380.800 67.457,380.800 66.367 C 380.800 65.285,380.980 64.400,381.200 64.400 C 381.427 64.400,381.600 63.247,381.600 61.741 L 381.600 59.083 389.565 50.987 C 399.044 41.352,400.000 40.137,400.000 37.740 C 400.000 36.783,399.901 36.000,399.780 36.000 C 398.861 36.000,396.369 38.201,389.609 44.983 C 380.975 53.647,380.800 53.759,380.800 50.680 C 380.800 49.514,380.635 48.389,380.434 48.180 C 378.794 46.479,379.387 45.621,388.691 36.212 C 399.103 25.683,400.000 24.567,400.000 22.140 C 400.000 19.092,399.062 19.792,387.400 31.544 C 379.886 39.117,377.772 41.043,377.672 40.409 C 377.602 39.964,377.377 39.600,377.172 39.600 C 376.967 39.600,376.800 39.364,376.800 39.075 C 376.800 38.787,376.485 38.202,376.099 37.775 C 373.850 35.287,373.466 35.849,386.107 23.141 C 399.256 9.923,400.000 9.032,400.000 6.513 C 400.000 3.242,400.481 2.853,383.227 20.063 L 371.735 31.527 370.967 30.477 C 369.699 28.741,368.142 27.200,367.657 27.200 C 366.554 27.200,367.765 25.827,377.300 16.267 C 392.759 0.768,392.733 0.800,389.487 0.800 C 386.992 0.800,386.114 1.527,374.101 13.552 C 363.020 24.644,363.284 24.426,362.400 23.200 C 362.083 22.760,361.503 22.400,361.112 22.400 C 360.720 22.400,360.400 22.220,360.400 22.000 C 360.400 21.780,360.117 21.600,359.771 21.600 C 359.158 21.600,358.000 20.696,358.000 20.216 C 358.000 20.084,361.105 16.859,364.900 13.050 C 376.760 1.146,377.014 0.800,373.887 0.800 C 371.489 0.800,370.526 1.559,361.276 10.737 C 354.286 17.672,352.000 19.462,352.000 18.000 C 352.000 17.780,351.471 17.600,350.824 17.600 C 350.177 17.600,349.536 17.420,349.400 17.200 C 349.264 16.980,348.308 16.799,347.276 16.799 L 345.400 16.797 350.800 11.476 C 360.743 1.677,361.358 0.800,358.287 0.800 C 355.939 0.800,354.897 1.598,346.873 9.540 L 340.346 16.000 335.797 16.000 C 333.195 16.000,331.141 16.171,331.000 16.400 C 330.864 16.620,330.538 16.796,330.276 16.792 C 330.014 16.787,332.230 14.390,335.200 11.464 C 345.157 1.657,345.759 0.800,342.687 0.800 C 340.282 0.800,339.334 1.547,329.840 10.933 C 322.458 18.230,320.330 20.000,318.939 20.000 C 318.642 20.000,318.400 20.180,318.400 20.400 C 318.400 20.620,318.122 20.800,317.783 20.800 C 317.444 20.800,316.780 21.160,316.308 21.600 C 315.836 22.040,315.213 22.400,314.925 22.400 C 314.636 22.400,314.400 22.580,314.400 22.800 C 314.400 23.020,314.164 23.200,313.875 23.200 C 313.587 23.200,313.002 23.515,312.575 23.900 C 312.148 24.285,311.104 25.120,310.253 25.756 C 308.289 27.224,304.400 31.163,304.400 31.684 C 304.400 31.901,303.860 32.583,303.200 33.200 C 302.540 33.817,302.000 34.609,302.000 34.960 C 302.000 35.312,301.848 35.600,301.663 35.600 C 301.477 35.600,300.892 36.455,300.363 37.500 C 299.833 38.545,299.265 39.460,299.100 39.533 C 298.935 39.607,298.800 40.012,298.800 40.433 C 298.800 40.855,298.620 41.200,298.400 41.200 C 298.180 41.200,298.000 41.538,298.000 41.951 C 298.000 43.377,204.216 136.730,203.014 136.501 C 202.456 136.394,202.000 136.148,202.000 135.953 C 202.000 135.759,201.640 135.600,201.200 135.600 C 200.760 135.600,200.400 135.420,200.400 135.200 C 200.400 134.980,200.040 134.800,199.600 134.800 C 199.160 134.800,198.800 134.633,198.800 134.428 C 198.800 134.223,198.448 133.998,198.018 133.928 C 197.432 133.832,213.556 117.486,262.455 68.600 C 319.572 11.500,328.800 2.100,328.800 1.020 C 328.800 0.196,325.153 0.919,323.560 2.058 C 322.592 2.750,292.963 32.135,257.718 67.358 C 198.754 126.286,192.400 132.499,192.400 131.229 C 192.400 130.993,192.040 130.800,191.600 130.800 C 191.160 130.800,190.800 130.620,190.800 130.400 C 190.800 130.180,190.558 130.000,190.261 130.000 C 189.560 130.000,187.200 128.821,187.200 128.470 C 187.200 128.321,215.291 100.119,249.626 65.800 C 304.356 11.092,313.200 2.080,313.200 1.020 C 313.200 0.203,309.553 0.918,307.960 2.048 C 306.992 2.735,279.065 30.407,245.900 63.541 C 212.735 96.676,185.600 123.485,185.600 123.117 C 185.600 122.748,185.780 122.336,186.000 122.200 C 186.220 122.064,186.400 121.524,186.400 121.000 C 186.400 120.476,186.580 119.936,186.800 119.800 C 187.020 119.664,187.200 118.944,187.200 118.200 C 187.200 117.456,187.380 116.736,187.600 116.600 C 187.820 116.464,188.000 115.328,188.001 114.076 L 188.002 111.800 242.224 57.600 C 289.756 10.088,297.600 2.073,297.600 1.020 C 297.600 0.202,293.953 0.918,292.360 2.049 C 291.392 2.737,267.515 26.358,239.300 54.541 L 188.000 105.784 188.000 103.172 C 188.000 101.735,187.808 100.368,187.573 100.133 C 185.764 98.324,184.222 99.984,234.042 50.101 C 286.364 -2.287,283.471 0.800,280.260 0.800 C 277.500 0.800,277.569 0.735,230.179 48.062 C 205.527 72.681,185.232 92.699,185.079 92.545 C 184.925 92.392,184.800 91.847,184.800 91.333 C 184.800 90.820,184.620 90.400,184.400 90.400 C 184.180 90.400,184.000 90.040,184.000 89.600 C 184.000 89.160,183.842 88.800,183.649 88.800 C 183.269 88.800,182.192 86.481,182.446 86.210 C 182.531 86.119,201.340 67.270,224.245 44.322 C 247.149 21.375,265.987 2.195,266.107 1.700 C 266.467 0.215,263.440 0.430,261.160 2.051 C 260.192 2.739,241.485 21.189,219.590 43.051 C 181.289 81.292,179.200 83.327,179.200 82.374 C 179.200 82.140,178.279 81.051,177.153 79.954 C 176.027 78.858,175.172 77.890,175.253 77.804 C 175.334 77.718,192.249 60.762,212.842 40.124 C 234.336 18.583,250.384 2.196,250.517 1.653 C 250.744 0.730,250.693 0.710,248.621 0.882 C 245.887 1.108,249.182 -1.994,207.197 39.885 C 172.109 74.885,171.467 75.480,170.400 74.000 C 170.083 73.560,169.543 73.200,169.200 73.200 C 168.857 73.200,168.317 72.840,168.000 72.400 C 167.683 71.960,167.059 71.600,166.613 71.600 C 166.058 71.600,176.161 61.217,198.626 38.700 C 239.065 -1.832,236.961 0.491,232.882 0.882 C 230.313 1.129,233.107 -1.494,195.696 35.800 C 163.094 68.299,161.574 69.734,160.678 68.838 C 160.437 68.597,159.916 68.400,159.520 68.400 C 159.124 68.400,158.800 68.220,158.800 68.000 C 158.800 67.780,158.192 67.600,157.449 67.600 C 154.169 67.600,153.940 67.856,184.053 37.781 C 221.192 0.687,221.090 0.800,217.487 0.800 C 215.087 0.800,216.845 -0.841,181.702 34.197 L 150.004 65.800 145.102 65.909 L 140.200 66.018 170.225 35.909 C 201.794 4.252,203.600 2.385,203.600 1.409 C 203.600 0.531,200.448 0.596,199.186 1.500 M339.094 41.647 C 340.142 41.893,341.313 42.253,341.695 42.447 C 342.077 42.641,342.581 42.800,342.817 42.800 C 343.623 42.800,347.801 45.895,349.535 47.776 C 355.197 53.919,354.835 63.982,348.732 70.112 C 338.915 79.971,321.129 74.821,318.356 61.316 C 316.150 50.570,328.243 39.101,339.094 41.647 M295.235 53.522 C 294.961 53.613,294.800 55.128,294.800 57.622 L 294.800 61.577 254.589 101.788 C 216.756 139.622,213.628 142.616,213.000 141.600 C 212.864 141.380,212.403 141.200,211.976 141.200 C 211.549 141.200,211.200 141.020,211.200 140.800 C 211.200 140.580,210.840 140.400,210.400 140.400 C 209.960 140.400,209.600 140.220,209.600 140.000 C 209.600 139.780,209.345 139.600,209.033 139.600 C 207.319 139.600,211.745 134.975,251.760 94.958 C 290.179 56.537,295.416 51.439,295.535 52.346 C 295.609 52.913,295.474 53.442,295.235 53.522 M296.325 68.703 C 296.394 69.416,296.619 70.000,296.825 70.000 C 297.031 70.000,297.200 70.540,297.200 71.200 C 297.200 71.860,297.380 72.400,297.600 72.400 C 299.390 72.400,295.810 76.194,264.008 108.002 C 245.312 126.701,229.832 142.000,229.608 142.000 C 229.383 142.000,229.200 142.177,229.200 142.392 C 229.200 142.608,228.750 142.898,228.200 143.036 C 227.650 143.174,227.200 143.447,227.200 143.643 C 227.200 143.840,226.957 144.000,226.659 144.000 C 226.362 144.000,225.523 144.569,224.795 145.265 L 223.471 146.530 221.836 145.664 C 220.936 145.188,219.994 144.798,219.743 144.799 C 217.700 144.804,220.128 142.230,256.903 105.397 C 277.857 84.412,295.270 67.279,295.600 67.325 C 295.962 67.374,296.250 67.922,296.325 68.703 M299.224 80.837 C 298.551 81.542,298.000 82.274,298.000 82.463 C 298.000 82.652,297.460 83.372,296.800 84.063 C 296.140 84.754,295.600 85.480,295.600 85.678 C 295.600 85.875,295.164 86.472,294.631 87.005 C 294.098 87.538,293.546 88.340,293.404 88.787 C 293.262 89.234,293.013 89.600,292.850 89.600 C 292.687 89.600,292.235 90.322,291.846 91.204 C 291.457 92.087,290.999 92.723,290.829 92.618 C 290.660 92.513,290.268 92.913,289.960 93.507 C 289.652 94.100,288.905 95.111,288.300 95.752 C 287.695 96.394,287.200 97.122,287.200 97.371 C 287.200 97.620,286.840 98.083,286.400 98.400 C 285.960 98.717,285.600 99.180,285.600 99.429 C 285.600 99.678,285.060 100.446,284.400 101.137 C 283.740 101.828,283.200 102.592,283.200 102.836 C 283.200 103.080,282.660 103.783,282.000 104.400 C 281.340 105.017,280.800 105.725,280.800 105.975 C 280.800 106.598,280.801 106.597,264.755 122.808 L 250.510 137.200 246.678 137.200 C 244.556 137.200,242.737 137.378,242.600 137.600 C 242.464 137.820,241.821 138.000,241.172 138.000 C 240.120 138.000,243.280 134.709,270.095 107.883 C 294.687 83.281,300.223 77.930,300.324 78.661 C 300.404 79.232,300.005 80.021,299.224 80.837 M148.081 90.932 C 149.115 91.205,150.090 91.557,150.247 91.714 C 150.405 91.871,150.783 92.000,151.089 92.000 C 153.007 92.000,158.742 97.285,160.274 100.464 C 167.789 116.059,148.600 131.425,134.020 121.488 C 128.327 117.608,124.458 108.125,126.761 103.695 C 126.960 103.313,127.343 102.253,127.612 101.339 C 129.734 94.148,140.167 88.843,148.081 90.932 M320.998 98.002 C 320.598 98.444,320.192 98.726,320.095 98.629 C 319.861 98.395,320.901 97.235,321.362 97.215 C 321.561 97.207,321.397 97.561,320.998 98.002 M327.200 99.200 C 327.200 99.420,327.920 99.600,328.800 99.600 C 329.680 99.600,330.400 99.770,330.400 99.978 C 330.400 100.186,331.215 100.411,332.211 100.478 L 334.022 100.600 308.746 125.884 C 283.575 151.062,283.467 151.165,282.934 150.139 C 282.200 148.723,282.235 148.565,283.600 147.137 C 284.260 146.446,284.800 145.720,284.800 145.522 C 284.800 145.325,285.250 144.714,285.800 144.164 C 286.350 143.614,286.800 142.999,286.800 142.797 C 286.800 142.596,287.142 142.109,287.561 141.716 C 288.566 140.769,291.600 136.707,291.600 136.307 C 291.600 136.134,292.140 135.428,292.800 134.737 C 293.460 134.046,294.000 133.326,294.000 133.137 C 294.000 132.948,294.540 132.228,295.200 131.537 C 295.860 130.846,296.400 130.126,296.400 129.937 C 296.400 129.748,296.940 129.028,297.600 128.337 C 298.260 127.646,298.800 126.922,298.800 126.727 C 298.800 126.294,298.588 126.512,313.765 111.242 C 324.981 99.956,327.200 97.967,327.200 99.200 M351.167 98.986 C 346.927 103.706,289.728 160.270,289.343 160.123 C 289.044 160.008,288.800 159.574,288.800 159.157 C 288.800 158.741,288.620 158.400,288.400 158.400 C 288.180 158.400,288.000 158.122,288.000 157.783 C 288.000 157.444,287.640 156.780,287.200 156.308 C 286.760 155.836,286.400 155.169,286.400 154.826 C 286.400 154.483,298.504 142.097,313.299 127.301 L 340.198 100.400 343.699 100.400 C 345.766 100.400,347.200 100.236,347.200 100.000 C 347.200 99.780,347.920 99.600,348.800 99.600 C 349.680 99.600,350.400 99.420,350.400 99.200 C 350.400 98.980,350.610 98.800,350.867 98.800 C 351.123 98.800,351.258 98.884,351.167 98.986 M103.600 120.819 C 103.600 121.443,103.780 122.064,104.000 122.200 C 104.220 122.336,104.400 122.887,104.400 123.424 C 104.400 123.961,104.580 124.400,104.800 124.400 C 106.773 124.400,104.176 127.222,79.403 151.999 L 53.605 177.800 48.929 177.675 L 44.253 177.549 73.389 148.411 C 102.275 119.523,103.600 118.313,103.600 120.819 M108.400 131.011 C 108.400 132.080,106.175 134.579,103.600 136.402 C 102.830 136.947,100.805 138.781,99.100 140.478 C 97.395 142.175,96.000 143.488,96.000 143.396 C 96.000 143.193,92.143 146.874,85.029 153.868 C 82.082 156.766,79.597 159.063,79.507 158.973 C 79.417 158.884,76.782 161.328,73.652 164.405 C 70.521 167.482,67.835 170.000,67.681 170.000 C 67.528 170.000,76.402 161.000,87.400 150.000 C 107.338 130.059,108.400 129.099,108.400 131.011 M259.903 134.485 C 259.627 134.971,259.175 135.614,258.900 135.913 C 258.625 136.212,258.400 136.624,258.400 136.829 C 258.400 137.033,257.946 137.200,257.391 137.200 C 256.417 137.200,256.442 137.137,258.091 135.429 C 259.966 133.486,260.685 133.112,259.903 134.485 M126.790 182.614 L 90.600 218.809 90.267 217.104 C 90.085 216.167,89.843 214.247,89.731 212.838 L 89.526 210.276 120.262 179.538 C 137.592 162.207,151.304 148.800,151.699 148.800 C 152.085 148.800,152.400 148.620,152.400 148.400 C 152.400 148.180,153.210 148.000,154.200 148.000 C 155.190 148.000,156.000 147.820,156.000 147.600 C 156.000 147.380,156.630 147.200,157.400 147.200 C 158.170 147.200,158.800 147.020,158.800 146.800 C 158.800 146.580,159.520 146.400,160.400 146.400 C 161.378 146.400,162.000 146.213,162.000 145.920 C 162.000 145.552,162.114 145.554,162.490 145.930 C 162.876 146.316,155.331 154.069,126.790 182.614 M107.200 171.000 C 84.766 193.436,82.400 195.652,82.400 194.223 C 82.400 193.905,82.048 193.399,81.618 193.098 C 80.846 192.557,80.847 192.543,81.673 191.975 C 82.134 191.659,82.893 191.040,83.361 190.600 C 83.830 190.160,85.020 189.149,86.006 188.353 C 86.993 187.558,88.610 186.054,89.600 185.012 C 94.081 180.296,95.088 179.316,96.400 178.396 C 97.170 177.855,98.368 176.870,99.061 176.207 C 99.755 175.543,102.241 173.200,104.586 171.000 C 106.930 168.800,110.805 165.110,113.195 162.800 C 115.585 160.490,118.409 157.884,119.470 157.010 C 120.532 156.135,123.200 153.582,125.400 151.337 C 127.720 148.969,129.735 147.243,130.199 147.227 C 130.721 147.209,122.772 155.426,107.200 171.000 M140.732 148.800 L 144.998 148.800 116.599 177.206 C 96.489 197.320,88.159 205.406,88.061 204.906 C 87.985 204.518,87.760 204.029,87.561 203.820 C 87.363 203.611,87.200 203.116,87.200 202.720 C 87.200 202.324,87.020 202.000,86.800 202.000 C 86.580 202.000,86.400 201.640,86.400 201.200 C 86.400 200.760,86.220 200.400,86.000 200.400 C 85.780 200.400,85.600 199.996,85.600 199.501 C 85.600 198.509,136.085 147.656,136.333 148.399 C 136.411 148.634,138.238 148.800,140.732 148.800 M170.701 150.091 C 172.077 150.807,173.152 151.543,173.091 151.728 C 172.927 152.219,83.084 242.017,82.920 241.853 C 82.843 241.777,83.055 241.486,83.390 241.208 C 83.726 240.930,84.000 240.469,84.000 240.184 C 84.000 239.900,84.135 239.607,84.300 239.533 C 84.732 239.341,86.400 236.028,86.400 235.362 C 86.400 235.053,86.580 234.800,86.800 234.800 C 87.020 234.800,87.200 234.528,87.200 234.195 C 87.200 233.862,87.362 233.277,87.561 232.895 C 87.760 232.513,88.132 231.390,88.388 230.400 C 88.644 229.410,89.040 227.970,89.267 227.200 C 89.799 225.396,166.124 148.803,167.399 148.794 C 167.840 148.791,169.326 149.375,170.701 150.091 M180.400 155.055 C 181.952 155.856,183.307 156.650,183.412 156.820 C 183.863 157.549,151.142 189.600,149.947 189.600 C 149.316 189.600,148.800 189.780,148.800 190.000 C 148.800 190.220,148.260 190.400,147.600 190.400 C 146.940 190.400,146.400 190.580,146.400 190.800 C 146.400 191.020,145.871 191.200,145.224 191.200 C 144.577 191.200,143.945 191.366,143.819 191.569 C 143.694 191.772,143.053 192.057,142.395 192.201 C 141.738 192.345,141.199 192.584,141.197 192.732 C 141.193 193.066,139.223 194.000,138.520 194.000 C 138.234 194.000,138.000 194.158,138.000 194.351 C 138.000 194.545,137.460 194.927,136.800 195.200 C 136.140 195.473,135.600 195.855,135.600 196.049 C 135.600 196.242,135.386 196.400,135.124 196.400 C 134.762 196.400,177.066 153.676,177.490 153.613 C 177.539 153.606,178.849 154.255,180.400 155.055 M190.823 160.105 C 192.240 160.823,193.617 161.549,193.883 161.718 C 194.203 161.922,189.849 166.536,180.960 175.413 L 167.555 188.800 162.731 188.800 L 157.906 188.800 172.853 173.814 C 181.074 165.572,187.900 158.822,188.023 158.814 C 188.146 158.806,189.406 159.387,190.823 160.105 M253.000 162.000 C 253.136 162.220,253.591 162.400,254.011 162.400 C 255.492 162.400,259.419 164.936,261.725 167.382 C 268.005 174.042,267.464 184.674,260.535 190.774 C 258.746 192.349,254.177 194.800,253.031 194.800 C 252.690 194.800,251.608 195.015,250.626 195.277 C 248.709 195.790,245.264 195.332,242.126 194.147 C 241.287 193.831,240.285 193.467,239.900 193.339 C 239.515 193.211,239.200 192.948,239.200 192.753 C 239.200 192.559,239.022 192.400,238.805 192.400 C 237.950 192.400,234.851 189.399,233.227 187.000 C 227.087 177.929,231.956 166.010,243.400 162.096 C 244.977 161.556,252.678 161.480,253.000 162.000 M201.944 165.667 C 203.295 166.363,204.400 167.093,204.400 167.288 C 204.400 168.343,179.612 192.330,178.723 192.135 C 177.769 191.926,176.920 191.622,175.200 190.870 C 174.650 190.630,173.750 190.381,173.200 190.317 C 171.930 190.169,197.192 164.459,198.644 164.422 C 199.108 164.410,200.593 164.970,201.944 165.667 M359.436 165.799 C 371.753 170.435,375.145 184.785,366.023 193.669 C 352.028 207.300,328.825 191.454,337.315 174.064 C 341.001 166.515,351.207 162.702,359.436 165.799 M207.227 173.924 C 206.969 174.010,206.800 175.415,206.800 177.485 L 206.800 180.904 197.993 189.652 C 193.149 194.463,189.127 198.400,189.055 198.400 C 188.983 198.400,188.401 197.950,187.762 197.400 C 187.123 196.851,186.452 196.401,186.271 196.400 C 186.091 196.400,185.677 196.134,185.352 195.809 C 185.027 195.484,184.474 195.057,184.123 194.861 C 183.612 194.575,185.843 192.146,195.443 182.539 L 207.400 170.573 207.527 172.177 C 207.599 173.072,207.466 173.845,207.227 173.924 M310.071 178.678 C 309.678 179.423,309.740 182.737,310.191 185.200 L 310.448 186.600 270.666 226.357 L 230.884 266.114 229.742 265.320 C 229.114 264.883,228.015 264.273,227.300 263.965 C 226.585 263.657,226.000 263.269,226.000 263.102 C 226.000 262.936,225.686 262.800,225.301 262.800 C 224.895 262.800,234.738 252.663,248.800 238.600 C 262.109 225.290,273.223 214.400,273.499 214.400 C 273.774 214.400,274.000 214.220,274.000 214.000 C 274.000 213.780,274.198 213.600,274.440 213.600 C 274.681 213.600,275.383 213.060,276.000 212.400 C 276.617 211.740,277.326 211.200,277.577 211.200 C 278.064 211.200,284.000 205.535,284.000 205.070 C 284.000 204.917,284.540 204.228,285.200 203.537 C 285.860 202.846,286.400 202.130,286.400 201.945 C 286.400 201.300,287.879 199.721,298.998 188.493 C 309.046 178.347,311.298 176.350,310.071 178.678 M208.027 188.000 C 208.232 188.000,208.408 188.585,208.418 189.300 C 208.427 190.015,208.682 191.294,208.985 192.141 L 209.534 193.683 203.096 200.208 L 196.658 206.733 194.929 204.903 C 193.978 203.896,193.200 202.831,193.200 202.536 C 193.200 202.241,193.020 202.000,192.800 202.000 C 191.807 202.000,192.867 200.761,199.900 193.703 C 206.244 187.336,207.420 186.317,207.527 187.088 C 207.596 187.590,207.821 188.000,208.027 188.000 M312.000 193.455 C 312.000 194.387,312.975 197.200,313.297 197.200 C 316.167 197.200,251.833 261.919,246.304 264.593 C 244.602 265.417,243.308 266.250,243.428 266.445 C 243.549 266.640,243.277 266.800,242.824 266.800 C 242.371 266.800,242.000 266.980,242.000 267.200 C 242.000 267.420,241.712 267.600,241.360 267.600 C 241.009 267.600,240.171 268.185,239.499 268.900 C 238.726 269.721,238.213 270.016,238.105 269.700 C 238.010 269.425,237.588 269.200,237.167 269.200 C 236.745 269.200,236.400 269.020,236.400 268.800 C 236.400 268.580,235.995 268.400,235.501 268.400 C 234.829 268.400,244.253 258.748,272.782 230.218 C 310.905 192.093,312.000 191.067,312.000 193.455 M212.482 199.547 C 212.850 200.399,213.388 201.351,213.676 201.664 C 215.413 203.552,215.511 203.384,208.658 210.274 C 202.212 216.756,201.200 217.417,201.200 215.151 C 201.200 214.738,201.020 214.400,200.800 214.400 C 200.580 214.400,200.400 214.040,200.400 213.600 C 200.400 213.160,200.220 212.800,200.000 212.800 C 199.780 212.800,199.600 212.440,199.600 212.000 C 199.600 211.560,199.420 211.200,199.200 211.200 C 198.244 211.200,199.151 210.115,205.024 204.233 C 212.058 197.188,211.588 197.484,212.482 199.547 M49.827 201.617 C 52.928 202.162,56.567 203.997,58.806 206.145 C 61.776 208.995,62.381 209.886,63.944 213.719 C 64.482 215.040,64.558 222.103,64.044 223.105 C 63.848 223.487,63.263 224.700,62.744 225.800 C 61.279 228.905,57.506 232.471,54.200 233.877 C 36.470 241.417,20.428 219.962,33.807 206.603 C 38.250 202.166,43.556 200.515,49.827 201.617 M312.123 207.097 C 311.681 207.484,311.017 208.385,310.649 209.100 C 310.281 209.815,309.804 210.400,309.590 210.400 C 309.375 210.400,309.200 210.643,309.200 210.941 C 309.200 211.238,308.660 212.046,308.000 212.737 C 307.340 213.428,306.800 214.176,306.800 214.400 C 306.800 214.624,306.260 215.372,305.600 216.063 C 304.940 216.754,304.400 217.522,304.400 217.771 C 304.400 218.020,304.040 218.483,303.600 218.800 C 303.160 219.117,302.800 219.580,302.800 219.829 C 302.800 220.078,302.260 220.846,301.600 221.537 C 300.940 222.228,300.400 222.992,300.400 223.236 C 300.400 223.480,299.860 224.183,299.200 224.800 C 298.540 225.417,298.000 226.119,298.000 226.360 C 298.000 226.602,297.859 226.800,297.686 226.800 C 297.514 226.800,297.079 227.295,296.721 227.900 C 296.363 228.505,295.604 229.540,295.035 230.200 C 294.466 230.860,294.001 231.594,294.000 231.830 C 294.000 232.067,293.550 232.683,293.000 233.200 C 292.450 233.717,292.000 234.351,292.000 234.610 C 292.000 234.869,291.460 235.646,290.800 236.337 C 290.140 237.028,289.594 237.819,289.587 238.096 C 289.580 238.373,284.817 243.370,279.003 249.200 L 268.431 259.800 265.916 259.896 C 264.532 259.949,262.230 260.101,260.800 260.233 L 258.200 260.474 285.383 233.253 C 300.333 218.282,312.647 206.114,312.747 206.214 C 312.847 206.313,312.566 206.711,312.123 207.097 M220.042 208.800 C 220.254 208.800,221.029 209.402,221.765 210.138 L 223.103 211.477 213.852 220.773 L 204.600 230.069 204.473 228.534 C 204.404 227.690,204.179 226.829,203.973 226.620 C 203.768 226.411,203.600 225.147,203.600 223.811 L 203.600 221.382 210.851 214.102 L 218.102 206.822 218.880 207.811 C 219.308 208.355,219.831 208.800,220.042 208.800 M167.614 214.836 C 181.280 219.322,183.648 237.069,171.613 244.792 C 154.218 255.954,134.449 233.803,148.800 219.229 C 153.576 214.379,160.966 212.653,167.614 214.836 M227.600 214.800 C 227.600 215.020,227.960 215.200,228.400 215.200 C 228.840 215.200,229.200 215.380,229.200 215.600 C 229.200 215.820,229.560 216.000,230.000 216.000 C 230.440 216.000,230.800 216.180,230.800 216.400 C 230.800 216.620,231.160 216.800,231.600 216.800 C 233.270 216.800,231.983 218.243,216.607 233.613 C 202.032 248.182,199.600 250.415,199.600 249.229 C 199.600 248.993,199.780 248.800,200.000 248.800 C 200.220 248.800,200.400 248.440,200.400 248.000 C 200.400 247.560,200.580 247.200,200.800 247.200 C 201.020 247.200,201.200 246.851,201.200 246.424 C 201.200 245.997,201.380 245.536,201.600 245.400 C 201.820 245.264,202.000 244.713,202.000 244.176 C 202.000 243.639,202.180 243.200,202.400 243.200 C 202.620 243.200,202.800 242.480,202.800 241.600 C 202.800 240.720,202.980 240.000,203.200 240.000 C 203.420 240.000,203.600 239.326,203.600 238.503 C 203.600 237.075,204.126 236.479,214.897 225.703 C 224.914 215.681,227.600 213.376,227.600 214.800 M239.600 219.600 C 239.600 219.820,240.299 220.000,241.154 220.000 C 246.003 220.000,246.554 219.256,227.793 238.030 C 212.177 253.656,209.600 256.036,209.600 254.829 C 209.600 254.593,209.240 254.400,208.800 254.400 C 208.360 254.400,208.000 254.264,208.000 254.098 C 208.000 253.931,207.415 253.536,206.700 253.220 C 205.985 252.903,205.186 252.455,204.924 252.222 C 204.056 251.452,236.652 219.200,238.298 219.200 C 239.014 219.200,239.600 219.380,239.600 219.600 M241.541 239.859 C 228.833 252.566,220.674 260.437,220.341 260.309 C 220.043 260.195,219.684 260.124,219.542 260.151 C 219.400 260.178,218.905 259.857,218.442 259.438 C 217.979 259.019,217.600 258.830,217.600 259.018 C 217.600 259.206,217.384 259.144,217.120 258.880 C 216.856 258.616,216.393 258.400,216.091 258.400 C 213.503 258.400,214.162 257.635,232.737 239.063 L 251.003 220.800 253.678 220.800 C 255.149 220.800,256.464 220.620,256.600 220.400 C 256.736 220.180,257.602 219.997,258.524 219.994 C 259.446 219.991,260.470 219.813,260.800 219.600 C 263.137 218.090,259.814 221.585,241.541 239.859 M345.029 223.646 C 345.149 223.841,345.768 224.000,346.405 224.000 C 347.331 224.000,348.519 224.343,349.892 225.007 C 349.943 225.031,338.846 236.200,325.232 249.826 C 306.518 268.557,300.373 274.482,300.040 274.117 C 299.491 273.514,299.469 272.800,300.000 272.800 C 300.220 272.800,300.400 272.618,300.400 272.396 C 300.400 272.174,300.940 271.428,301.600 270.737 C 302.260 270.046,302.800 269.326,302.800 269.137 C 302.800 268.948,303.340 268.228,304.000 267.537 C 304.660 266.846,305.200 266.120,305.200 265.922 C 305.200 265.725,305.650 265.114,306.200 264.564 C 306.750 264.014,307.200 263.419,307.200 263.243 C 307.200 262.961,307.647 262.349,309.193 260.517 C 309.417 260.251,309.600 259.768,309.600 259.444 C 309.600 259.119,309.960 258.740,310.400 258.600 C 310.840 258.460,311.200 258.088,311.200 257.773 C 311.200 257.458,311.380 257.200,311.600 257.200 C 311.820 257.200,312.000 257.018,312.000 256.796 C 312.000 256.574,312.540 255.828,313.200 255.137 C 313.860 254.446,314.400 253.726,314.400 253.537 C 314.400 253.348,314.940 252.628,315.600 251.937 C 316.260 251.246,316.800 250.510,316.800 250.301 C 316.800 250.092,317.340 249.417,318.000 248.800 C 318.660 248.183,319.200 247.484,319.200 247.246 C 319.200 245.610,342.181 222.906,343.623 223.118 C 344.276 223.214,344.908 223.451,345.029 223.646 M366.400 224.162 C 366.400 224.251,352.961 237.760,336.535 254.183 L 306.670 284.043 305.732 282.322 C 305.216 281.375,304.685 280.285,304.550 279.900 C 304.416 279.515,304.169 279.200,304.000 279.200 C 302.074 279.200,304.448 276.628,329.777 251.280 L 356.237 224.800 359.819 224.794 C 361.788 224.791,363.670 224.613,364.000 224.400 C 364.586 224.021,366.400 223.841,366.400 224.162 M118.014 237.200 C 119.077 237.200,116.144 240.242,86.789 269.593 C 55.518 300.860,55.161 301.200,53.589 301.200 C 52.715 301.200,52.000 301.380,52.000 301.600 C 52.000 301.820,51.460 302.000,50.800 302.000 C 50.140 302.000,49.600 302.180,49.600 302.400 C 49.600 302.620,49.060 302.800,48.400 302.800 C 47.740 302.800,47.200 302.980,47.200 303.200 C 47.200 303.420,46.840 303.600,46.400 303.600 C 45.960 303.600,45.600 303.780,45.600 304.000 C 45.600 304.220,45.240 304.400,44.800 304.400 C 44.360 304.400,44.000 304.536,44.000 304.702 C 44.000 304.869,43.415 305.260,42.700 305.572 C 41.985 305.884,41.109 306.468,40.753 306.870 C 40.397 307.271,39.885 307.600,39.616 307.600 C 39.346 307.600,56.737 289.981,78.262 268.446 L 117.400 229.292 117.514 233.246 C 117.577 235.441,117.800 237.200,118.014 237.200 M398.563 239.589 C 396.915 240.256,239.838 397.691,239.416 399.100 C 238.969 400.590,242.156 400.379,244.375 398.772 C 246.590 397.168,397.168 246.590,398.772 244.375 C 399.695 243.101,400.000 242.247,400.000 240.940 C 400.000 239.117,399.919 239.041,398.563 239.589 M120.000 245.371 C 120.000 245.937,120.180 246.400,120.400 246.400 C 120.620 246.400,120.800 246.760,120.800 247.200 C 120.800 247.640,120.980 248.000,121.200 248.000 C 121.420 248.000,121.600 248.360,121.600 248.800 C 121.600 249.240,121.787 249.600,122.015 249.600 C 122.243 249.600,110.991 261.030,97.011 275.000 L 71.593 300.400 66.768 300.400 L 61.944 300.400 90.472 271.874 C 120.045 242.303,120.000 242.343,120.000 245.371 M122.400 256.400 C 121.031 257.744,119.820 258.754,119.710 258.644 C 119.600 258.534,120.631 257.344,122.000 256.000 C 123.369 254.656,124.580 253.646,124.690 253.756 C 124.800 253.866,123.769 255.056,122.400 256.400 M398.596 255.177 C 397.972 255.430,264.094 388.960,256.943 396.462 C 253.525 400.048,255.851 401.752,260.040 398.730 C 262.340 397.072,397.072 262.340,398.730 260.040 C 399.692 258.707,400.000 257.858,400.000 256.540 C 400.000 254.725,399.914 254.642,398.596 255.177 M179.855 270.300 C 179.701 270.465,163.426 286.758,143.688 306.507 L 107.800 342.413 107.680 339.707 C 107.613 338.218,107.388 336.829,107.180 336.620 C 105.566 335.005,105.283 335.319,137.099 303.501 C 158.814 281.785,167.647 273.200,168.275 273.200 C 168.758 273.200,169.264 273.020,169.400 272.800 C 169.536 272.580,170.346 272.400,171.200 272.400 C 172.054 272.400,172.864 272.220,173.000 272.000 C 173.136 271.780,173.867 271.600,174.624 271.600 C 175.381 271.600,176.000 271.420,176.000 271.200 C 176.000 270.980,176.720 270.800,177.600 270.800 C 178.480 270.800,179.200 270.620,179.200 270.400 C 179.200 270.180,179.410 270.000,179.667 270.000 C 179.923 270.000,180.008 270.135,179.855 270.300 M398.200 271.150 C 396.651 272.113,271.704 397.096,270.977 398.409 C 270.160 399.885,270.245 400.000,272.140 400.000 C 274.917 400.000,274.264 400.626,337.445 337.445 C 400.626 274.264,400.000 274.917,400.000 272.140 C 400.000 270.175,399.876 270.107,398.200 271.150 M154.621 272.781 C 154.831 272.991,156.406 273.216,158.121 273.281 L 161.240 273.400 133.332 301.300 C 102.329 332.294,105.200 329.548,105.200 328.200 C 105.200 327.650,105.020 327.200,104.800 327.200 C 104.580 327.200,104.400 326.840,104.400 326.400 C 104.400 325.960,104.220 325.600,104.000 325.600 C 103.780 325.600,103.600 325.240,103.600 324.800 C 103.600 324.360,103.408 324.000,103.173 324.000 C 101.215 324.000,104.030 320.930,127.769 297.180 C 152.191 272.747,153.447 271.607,154.621 272.781 M187.292 273.922 L 190.375 275.444 146.310 319.511 C 122.074 343.747,102.144 363.468,102.022 363.334 C 101.900 363.200,102.025 363.010,102.300 362.912 C 102.575 362.814,102.800 362.388,102.800 361.967 C 102.800 361.545,102.980 361.200,103.200 361.200 C 103.420 361.200,103.600 360.840,103.600 360.400 C 103.600 359.960,103.780 359.600,104.000 359.600 C 104.220 359.600,104.400 359.328,104.400 358.995 C 104.400 358.407,104.567 357.982,105.538 356.105 C 105.792 355.613,106.000 354.679,106.000 354.029 C 106.000 353.379,106.180 352.736,106.400 352.600 C 106.620 352.464,106.800 351.689,106.800 350.877 C 106.800 349.453,108.149 348.053,145.299 310.901 C 166.474 289.725,183.891 272.400,184.004 272.400 C 184.116 272.400,185.596 273.085,187.292 273.922 M142.618 276.218 C 142.032 276.805,141.462 277.195,141.352 277.085 C 141.242 276.975,141.632 276.405,142.218 275.818 C 142.805 275.232,143.375 274.842,143.485 274.952 C 143.595 275.062,143.205 275.632,142.618 276.218 M120.583 298.391 C 109.592 309.386,100.452 318.386,100.271 318.391 C 97.694 318.461,103.733 311.166,110.951 305.490 C 111.853 304.780,114.604 302.220,117.064 299.800 C 119.524 297.380,122.551 294.500,123.790 293.400 C 125.029 292.300,127.528 289.960,129.344 288.200 C 131.160 286.440,133.445 284.375,134.423 283.612 C 135.400 282.849,137.010 281.374,138.000 280.335 C 138.990 279.296,139.972 278.436,140.183 278.423 C 140.393 278.410,131.573 287.396,120.583 298.391 M271.627 284.639 C 284.649 288.471,288.697 303.686,279.081 312.658 C 264.327 326.426,241.980 310.271,251.168 292.480 C 253.196 288.554,257.637 285.474,263.000 284.272 C 264.893 283.848,269.622 284.049,271.627 284.639 M398.600 286.463 C 397.352 287.148,287.232 397.265,286.580 398.480 C 285.774 399.981,285.789 400.000,287.740 400.000 C 290.522 400.000,290.244 400.264,345.254 345.254 C 400.264 290.244,400.000 290.522,400.000 287.740 C 400.000 285.893,399.865 285.769,398.600 286.463 M398.600 302.061 C 397.353 302.741,302.827 397.264,302.177 398.480 C 301.372 399.987,301.383 400.000,303.442 400.000 C 306.133 400.000,304.655 401.392,350.344 355.829 C 399.287 307.021,400.000 306.270,400.000 303.538 C 400.000 301.492,399.878 301.363,398.600 302.061 M398.389 317.859 C 396.865 318.876,318.581 397.186,317.847 398.428 C 316.941 399.962,316.972 400.000,319.138 400.000 C 321.837 400.000,323.120 398.794,363.627 358.145 C 400.928 320.715,400.000 321.712,400.000 319.042 C 400.000 317.011,399.839 316.893,398.389 317.859 M68.772 325.255 C 80.746 329.073,85.864 342.516,78.600 351.071 C 73.347 357.258,67.141 359.813,60.877 358.367 C 56.985 357.468,54.665 356.235,51.805 353.545 C 42.162 344.475,45.905 329.779,59.000 325.296 C 60.658 324.728,67.036 324.702,68.772 325.255 M398.800 333.271 C 397.443 333.770,333.363 397.966,333.091 399.100 C 332.890 399.937,333.007 400.000,334.776 400.000 C 336.621 400.000,336.804 399.885,341.038 396.045 C 346.373 391.208,396.471 340.936,398.553 338.331 C 400.469 335.933,400.632 332.598,398.800 333.271 M398.400 349.238 C 396.449 350.403,349.841 397.103,349.035 398.700 L 348.379 400.000 350.328 400.000 C 352.914 400.000,355.307 397.828,379.025 373.948 C 400.161 352.668,400.092 352.745,399.923 350.231 L 399.800 348.402 398.400 349.238 M398.400 364.843 C 396.456 366.009,365.455 397.100,364.641 398.700 L 363.979 400.000 365.903 400.000 C 367.275 400.000,368.167 399.743,369.013 399.105 C 370.561 397.937,397.937 370.561,399.105 369.013 C 399.842 368.036,400.484 363.993,399.900 364.001 C 399.845 364.002,399.170 364.381,398.400 364.843 M398.400 380.452 C 396.475 381.619,381.077 397.104,380.249 398.705 L 379.579 400.000 381.503 400.000 C 383.933 400.000,384.192 399.803,391.997 391.997 C 399.797 384.198,400.000 383.932,400.000 381.513 C 400.000 380.461,399.955 379.601,399.900 379.601 C 399.845 379.602,399.170 379.985,398.400 380.452 M398.903 395.821 C 397.576 396.487,396.466 397.585,395.828 398.865 L 395.261 400.000 397.182 400.000 C 399.540 400.000,400.086 399.426,399.923 397.117 C 399.806 395.454,399.757 395.392,398.903 395.821 " stroke="none" fill="#6c6caa" fill-rule="evenodd"/><path id="path2" d="M243.051 162.851 C 230.834 166.982,227.214 180.913,236.090 189.638 C 238.324 191.833,241.119 193.600,242.358 193.600 C 242.733 193.600,243.258 193.818,243.525 194.085 C 244.220 194.780,252.324 194.764,253.839 194.064 C 259.409 191.493,262.084 189.229,263.866 185.576 C 270.248 172.494,257.073 158.110,243.051 162.851 M157.618 214.810 C 147.553 216.934,141.597 228.324,145.899 237.223 C 151.198 248.182,165.422 250.611,174.032 242.026 C 185.869 230.222,174.435 211.263,157.618 214.810 " stroke="none" fill="#b0eda9" fill-rule="evenodd"/><path id="path3" d="M332.200 41.784 C 323.308 43.985,316.709 53.294,318.356 61.316 C 321.125 74.799,338.654 79.928,348.641 70.177 C 354.810 64.155,355.238 54.219,349.603 47.880 C 347.929 45.996,343.659 42.800,342.817 42.800 C 342.581 42.800,342.077 42.641,341.695 42.447 C 339.311 41.237,335.488 40.970,332.200 41.784 M342.947 43.575 C 357.640 50.587,355.957 70.063,340.298 74.232 C 330.114 76.943,318.800 68.999,318.800 59.137 C 318.800 46.872,332.013 38.357,342.947 43.575 M140.800 90.950 C 131.011 92.790,124.429 102.413,126.845 111.354 C 131.375 128.121,155.760 128.875,161.164 112.414 C 165.031 100.636,153.564 88.550,140.800 90.950 M151.589 92.924 C 157.645 95.837,161.303 101.420,161.334 107.800 C 161.378 116.666,151.725 125.263,143.306 123.855 C 137.014 122.804,135.209 122.029,132.066 119.030 C 123.060 110.440,126.247 97.234,138.600 91.957 C 141.308 90.800,148.247 91.317,151.589 92.924 M352.505 165.087 C 353.114 165.179,354.014 165.177,354.505 165.082 C 354.997 164.987,354.500 164.911,353.400 164.914 C 352.300 164.917,351.897 164.995,352.505 165.087 M340.378 170.300 L 339.000 171.800 340.500 170.422 C 341.896 169.138,342.184 168.800,341.878 168.800 C 341.812 168.800,341.137 169.475,340.378 170.300 M365.600 170.200 C 366.346 170.970,367.047 171.600,367.157 171.600 C 367.267 171.600,366.746 170.970,366.000 170.200 C 365.254 169.430,364.553 168.800,364.443 168.800 C 364.333 168.800,364.854 169.430,365.600 170.200 M365.578 193.500 L 364.200 195.000 365.700 193.622 C 367.096 192.338,367.384 192.000,367.078 192.000 C 367.012 192.000,366.337 192.675,365.578 193.500 M46.700 201.882 C 47.195 201.978,48.005 201.978,48.500 201.882 C 48.995 201.787,48.590 201.709,47.600 201.709 C 46.610 201.709,46.205 201.787,46.700 201.882 M45.500 235.089 C 46.215 235.178,47.385 235.178,48.100 235.089 C 48.815 235.001,48.230 234.928,46.800 234.928 C 45.370 234.928,44.785 235.001,45.500 235.089 M263.200 284.258 C 256.804 285.550,252.089 289.483,249.963 295.302 C 249.090 297.691,248.907 303.633,249.650 305.481 C 250.700 308.094,251.039 308.706,252.558 310.738 C 260.912 321.914,279.098 318.964,283.563 305.709 C 287.498 294.029,275.806 281.712,263.200 284.258 M270.660 284.958 C 283.522 288.383,288.024 302.719,279.110 311.864 C 265.576 325.749,243.151 310.454,251.563 293.076 C 254.519 286.971,263.647 283.091,270.660 284.958 M59.000 325.296 C 45.838 329.803,42.128 344.649,51.922 353.623 C 54.269 355.774,55.291 356.423,58.200 357.607 C 72.518 363.439,88.054 345.692,79.509 333.267 C 74.833 326.468,65.815 322.963,59.000 325.296 M68.206 325.785 C 77.345 328.165,83.700 338.143,80.750 345.481 C 79.794 347.860,79.385 348.660,78.236 350.400 C 68.412 365.277,44.465 356.325,47.234 338.810 C 48.686 329.625,58.810 323.337,68.206 325.785 " stroke="none" fill="#9f90b7" fill-rule="evenodd"/><path id="path4" d="M243.400 162.096 C 235.150 164.918,229.149 173.435,230.625 180.225 C 230.935 181.647,230.992 181.451,231.214 178.200 C 231.741 170.481,235.819 165.254,243.209 162.828 C 257.234 158.224,270.228 172.533,263.866 185.576 C 262.084 189.229,259.409 191.493,253.839 194.064 C 252.324 194.764,244.220 194.780,243.525 194.085 C 243.258 193.818,242.733 193.600,242.358 193.600 C 239.767 193.600,234.510 188.791,232.561 184.639 C 231.256 181.858,230.633 181.745,231.784 184.499 C 232.403 185.982,234.863 189.399,236.032 190.400 C 237.974 192.063,238.441 192.400,238.805 192.400 C 239.022 192.400,239.200 192.559,239.200 192.753 C 239.200 192.948,239.515 193.211,239.900 193.339 C 240.285 193.467,241.287 193.831,242.126 194.147 C 245.264 195.332,248.709 195.790,250.626 195.277 C 251.608 195.015,252.690 194.800,253.031 194.800 C 254.177 194.800,258.746 192.349,260.535 190.774 C 267.464 184.674,268.005 174.042,261.725 167.382 C 259.419 164.936,255.492 162.400,254.011 162.400 C 253.591 162.400,253.136 162.220,253.000 162.000 C 252.678 161.480,244.977 161.556,243.400 162.096 M348.800 165.200 C 347.456 165.631,348.908 165.631,350.600 165.200 C 351.678 164.926,351.698 164.894,350.800 164.887 C 350.250 164.883,349.350 165.024,348.800 165.200 M356.000 165.200 C 356.550 165.376,357.360 165.526,357.800 165.532 L 358.600 165.544 357.800 165.200 C 357.360 165.011,356.550 164.862,356.000 164.868 L 355.000 164.880 356.000 165.200 M343.174 167.562 C 335.142 172.608,332.961 185.001,338.966 191.477 C 339.535 192.090,340.000 192.707,340.000 192.847 C 340.000 193.177,344.171 196.400,344.597 196.400 C 344.775 196.400,344.212 195.887,343.348 195.261 C 333.544 188.159,333.442 174.620,343.143 168.100 C 345.978 166.194,346.002 165.786,343.174 167.562 M361.400 166.873 C 361.840 167.120,362.695 167.667,363.300 168.088 C 363.905 168.510,364.400 168.759,364.400 168.642 C 364.400 168.321,361.474 166.398,361.007 166.412 C 360.783 166.419,360.960 166.626,361.400 166.873 M366.366 170.600 C 367.309 171.700,368.337 173.095,368.650 173.700 C 368.964 174.305,369.317 174.800,369.436 174.800 C 369.962 174.800,367.723 171.497,366.264 170.121 L 364.651 168.600 366.366 170.600 M369.612 175.600 C 369.612 175.930,369.787 176.470,370.000 176.800 C 370.345 177.333,370.388 177.333,370.388 176.800 C 370.388 176.470,370.213 175.930,370.000 175.600 C 369.655 175.067,369.612 175.067,369.612 175.600 M370.600 182.043 C 370.600 184.467,370.717 186.034,370.860 185.525 C 371.206 184.293,371.215 179.178,370.872 178.317 C 370.722 177.942,370.600 179.618,370.600 182.043 M366.636 192.700 L 364.719 195.000 366.759 192.883 C 368.604 190.970,369.044 190.400,368.676 190.400 C 368.608 190.400,367.690 191.435,366.636 192.700 M362.774 195.783 C 358.631 198.500,353.293 199.038,347.400 197.332 C 346.960 197.205,346.744 197.252,346.919 197.436 C 348.072 198.648,354.762 199.155,358.000 198.276 C 360.218 197.673,364.400 195.633,364.400 195.153 C 364.400 194.702,364.451 194.682,362.774 195.783 M45.107 201.490 C 45.826 201.579,46.906 201.577,47.507 201.486 C 48.108 201.395,47.520 201.322,46.200 201.324 C 44.880 201.326,44.388 201.401,45.107 201.490 M41.376 201.975 C 36.606 203.117,29.543 209.907,29.610 213.287 C 29.616 213.569,30.187 212.630,30.880 211.200 C 32.982 206.861,37.171 203.543,42.400 202.075 C 44.020 201.620,43.195 201.539,41.376 201.975 M50.800 202.143 C 54.162 203.140,56.548 204.485,58.968 206.745 C 60.296 207.985,61.117 208.642,60.791 208.204 C 58.662 205.338,53.702 202.231,50.600 201.820 L 49.000 201.609 50.800 202.143 M62.688 211.900 C 63.984 214.518,64.021 214.730,63.912 218.863 C 63.851 221.207,63.935 223.041,64.100 222.939 C 64.574 222.645,64.449 214.959,63.949 213.719 C 63.050 211.486,61.868 209.200,61.613 209.200 C 61.469 209.200,61.953 210.415,62.688 211.900 M156.400 214.542 C 149.718 216.728,145.128 221.932,144.086 228.500 C 142.209 240.340,155.194 250.953,166.768 247.038 C 186.369 240.406,182.069 213.804,161.434 214.042 C 159.435 214.065,157.170 214.290,156.400 214.542 M29.043 215.033 C 28.702 215.921,28.751 220.904,29.106 221.462 C 29.268 221.716,29.400 220.231,29.400 218.162 C 29.400 214.090,29.401 214.099,29.043 215.033 M169.391 216.183 C 184.213 223.312,180.940 243.939,164.502 246.995 C 151.288 249.451,140.324 235.610,146.149 223.824 C 150.289 215.447,160.727 212.015,169.391 216.183 M63.057 224.284 C 62.923 224.678,62.636 225.405,62.419 225.900 C 61.779 227.364,62.303 226.925,63.034 225.386 C 63.403 224.608,63.614 223.881,63.503 223.770 C 63.392 223.659,63.192 223.890,63.057 224.284 M31.222 226.600 C 31.227 227.129,32.342 228.591,32.569 228.365 C 32.666 228.268,32.402 227.741,31.982 227.194 C 31.561 226.647,31.220 226.380,31.222 226.600 M59.600 229.559 C 58.303 230.914,56.450 232.320,55.087 232.982 C 52.547 234.217,52.159 234.870,54.650 233.717 C 57.209 232.533,63.593 226.842,61.927 227.230 C 61.857 227.246,60.810 228.294,59.600 229.559 M34.600 230.574 C 36.868 232.660,40.629 234.625,43.000 234.963 L 44.600 235.191 42.800 234.661 C 39.745 233.760,37.499 232.599,35.000 230.628 L 32.600 228.735 34.600 230.574 M50.000 234.800 C 49.208 235.054,49.167 235.120,49.800 235.120 C 50.240 235.120,51.050 234.976,51.600 234.800 C 52.392 234.546,52.433 234.480,51.800 234.480 C 51.360 234.480,50.550 234.624,50.000 234.800 M46.300 235.482 C 46.795 235.578,47.605 235.578,48.100 235.482 C 48.595 235.387,48.190 235.309,47.200 235.309 C 46.210 235.309,45.805 235.387,46.300 235.482 " stroke="none" fill="#8a9bb7" fill-rule="evenodd"/></g></svg>
